<svg width="385" height="164" viewBox="0 0 385 164" fill="none" xmlns="http://www.w3.org/2000/svg">
<path d="M56.1023 33.2402L85.3676 74.4205C87.6039 77.5673 91.9659 78.3066 95.1104 76.0719C98.2549 73.8372 98.9912 69.4747 96.7549 66.3279L67.4896 25.1477C65.2533 22.0009 60.8913 21.2615 57.7468 23.4962C54.6023 25.7309 53.866 30.0934 56.1023 33.2402Z" fill="url(#paint0_linear_106_1900)"/>
<path d="M69.3909 23.7809L98.6561 64.9611C100.892 68.1079 105.254 68.8473 108.399 66.6126C111.544 64.3779 112.28 60.0153 110.043 56.8686L80.7782 15.6883C78.5419 12.5415 74.1799 11.8022 71.0354 14.0369C67.8908 16.2716 67.1546 20.6341 69.3909 23.7809Z" fill="url(#paint1_linear_106_1900)"/>
<path d="M82.9853 13.7903L112.251 54.9705C114.487 58.1173 118.849 58.8567 121.993 56.622C125.138 54.3873 125.874 50.0248 123.638 46.878L94.3727 5.69771C92.1364 2.55094 87.7744 1.81156 84.6298 4.04626C81.4853 6.28096 80.749 10.6435 82.9853 13.7903Z" fill="url(#paint2_linear_106_1900)"/>
<path d="M38.8472 116.512L68.1124 157.693C70.3487 160.839 74.7108 161.579 77.8553 159.344C80.9998 157.109 81.7361 152.747 79.4998 149.6L50.2345 108.42C47.9982 105.273 43.6362 104.534 40.4917 106.768C37.3471 109.003 36.6109 113.366 38.8472 116.512Z" fill="url(#paint3_linear_106_1900)"/>
<path d="M52.1597 107.065L81.4249 148.246C83.6612 151.392 88.0233 152.132 91.1678 149.897C94.3123 147.662 95.0486 143.3 92.8123 140.153L63.547 98.9728C61.3107 95.826 56.9487 95.0866 53.8042 97.3213C50.6596 99.556 49.9234 103.919 52.1597 107.065Z" fill="url(#paint4_linear_106_1900)"/>
<path d="M65.746 97.0705L95.0112 138.251C97.2475 141.398 101.61 142.137 104.754 139.902C107.899 137.668 108.635 133.305 106.399 130.158L77.1333 88.978C74.897 85.8312 70.535 85.0918 67.3905 87.3265C64.2459 89.5612 63.5097 93.9238 65.746 97.0705Z" fill="url(#paint5_linear_106_1900)"/>
<path d="M46.7965 40.0677L5.68783 69.4336C2.54653 71.6775 1.8178 76.0414 4.06018 79.1804C6.30255 82.3195 10.6669 83.0451 13.8082 80.8011L54.9168 51.4353C58.0581 49.1913 58.7868 44.8275 56.5445 41.6884C54.3021 38.5494 49.9378 37.8238 46.7965 40.0677Z" fill="#24245D"/>
<path d="M56.2936 53.3557L15.185 82.7215C12.0437 84.9655 11.315 89.3293 13.5574 92.4684C15.7997 95.6074 20.1641 96.333 23.3054 94.0891L64.414 64.7232C67.5553 62.4793 68.284 58.1154 66.0417 54.9764C63.7993 51.8373 59.435 51.1117 56.2936 53.3557Z" fill="#24245D"/>
<path d="M66.3172 66.9095L25.2086 96.2753C22.0673 98.5193 21.3386 102.883 23.5809 106.022C25.8233 109.161 30.1876 109.887 33.3289 107.643L74.4376 78.277C77.5789 76.033 78.3076 71.6692 76.0652 68.5302C73.8228 65.3911 69.4585 64.6655 66.3172 66.9095Z" fill="#24245D"/>
<path d="M145.687 152.255C145.137 152.255 144.687 151.805 144.687 151.255V10.5851C144.687 10.0351 145.137 9.58514 145.687 9.58514C146.237 9.58514 146.687 10.0351 146.687 10.5851V151.255C146.687 151.805 146.237 152.255 145.687 152.255Z" fill="#212C4A"/>
<path d="M174.853 45.6851C174.853 22.9051 191.143 9.89515 213.093 9.89515C221.733 9.89515 228.393 11.6251 231.673 13.1451L228.493 25.6551C224.813 24.0251 220.253 22.7051 212.993 22.7051C200.283 22.7051 190.643 29.9251 190.643 44.8751C190.643 59.0051 199.483 67.3451 211.803 67.3451C215.183 67.3451 217.963 66.9351 219.153 66.3251V51.9851H208.923V39.8851H233.853V75.9851C229.183 77.7151 220.343 79.8451 211.503 79.8451C199.283 79.8451 190.443 76.6951 184.283 70.6951C178.123 64.6951 174.743 55.7451 174.843 45.6851H174.853ZM280.703 9.58514C288.553 9.58514 294.613 11.1151 297.193 12.6351L294.013 24.8351C291.033 23.5151 286.763 22.2951 281.393 22.2951C269.473 22.2951 260.033 29.7151 260.033 44.9751C260.033 58.7051 267.983 67.3451 281.493 67.3451C286.063 67.3451 291.133 66.3251 294.113 65.1051L296.393 77.3051C293.613 78.6251 287.353 80.2551 279.213 80.2551C256.073 80.2551 244.143 65.4051 244.143 45.8851C244.143 22.4951 260.433 9.58514 280.703 9.58514ZM307.683 11.5151C313.243 10.5951 320.593 10.0951 328.043 10.0951C340.853 10.0951 349.103 12.5351 355.563 17.4151C362.513 22.7051 366.883 31.1451 366.883 43.2451C366.883 56.3651 362.213 65.4151 355.753 71.0051C348.703 77.0051 337.873 79.8551 324.963 79.8551C317.013 79.8551 311.453 79.3451 307.683 78.8351V11.5151ZM328.143 67.7551C341.853 67.8551 350.793 60.1251 350.793 43.7551C350.793 29.5151 342.743 21.9951 329.633 21.9951C326.353 21.9951 324.173 22.3051 322.783 22.6051V67.4451C324.173 67.6451 326.263 67.7551 328.143 67.7551Z" fill="#212C4A"/>
<mask id="mask0_106_1900" style="mask-type:luminance" maskUnits="userSpaceOnUse" x="174" y="9" width="193" height="72">
<path d="M174.853 45.6851C174.853 22.9051 191.143 9.89515 213.093 9.89515C221.733 9.89515 228.393 11.6251 231.673 13.1451L228.493 25.6551C224.813 24.0251 220.253 22.7051 212.993 22.7051C200.283 22.7051 190.643 29.9251 190.643 44.8751C190.643 59.0051 199.483 67.3451 211.803 67.3451C215.183 67.3451 217.963 66.9351 219.153 66.3251V51.9851H208.923V39.8851H233.853V75.9851C229.183 77.7151 220.343 79.8451 211.503 79.8451C199.283 79.8451 190.443 76.6951 184.283 70.6951C178.123 64.6951 174.743 55.7451 174.843 45.6851H174.853ZM280.703 9.58514C288.553 9.58514 294.613 11.1151 297.193 12.6351L294.013 24.8351C291.033 23.5151 286.763 22.2951 281.393 22.2951C269.473 22.2951 260.033 29.7151 260.033 44.9751C260.033 58.7051 267.983 67.3451 281.493 67.3451C286.063 67.3451 291.133 66.3251 294.113 65.1051L296.393 77.3051C293.613 78.6251 287.353 80.2551 279.213 80.2551C256.073 80.2551 244.143 65.4051 244.143 45.8851C244.143 22.4951 260.433 9.58514 280.703 9.58514ZM307.683 11.5151C313.243 10.5951 320.593 10.0951 328.043 10.0951C340.853 10.0951 349.103 12.5351 355.563 17.4151C362.513 22.7051 366.883 31.1451 366.883 43.2451C366.883 56.3651 362.213 65.4151 355.753 71.0051C348.703 77.0051 337.873 79.8551 324.963 79.8551C317.013 79.8551 311.453 79.3451 307.683 78.8351V11.5151ZM328.143 67.7551C341.853 67.8551 350.793 60.1251 350.793 43.7551C350.793 29.5151 342.743 21.9951 329.633 21.9951C326.353 21.9951 324.173 22.3051 322.783 22.6051V67.4451C324.173 67.6451 326.263 67.7551 328.143 67.7551Z" fill="white"/>
</mask>
<g mask="url(#mask0_106_1900)">
<path d="M408.633 -17.6348H-25.3668V178.365H408.633V-17.6348Z" fill="#212C4A"/>
</g>
<path d="M166.807 93.2051C166.867 94.2751 167.287 94.5051 168.027 94.5051C168.477 94.5051 169.067 94.7151 169.067 95.3951C169.067 95.8151 168.897 96.3051 168.027 96.3051C166.987 96.3051 166.247 96.0351 165.877 95.1651C165.477 95.4551 164.887 95.6151 164.447 95.6151C163.327 95.6151 162.597 94.8851 162.597 93.9451C162.597 93.1351 162.997 92.4451 163.747 91.8351C164.207 91.4551 164.897 91.0951 165.457 90.8151L165.437 89.9851L166.657 89.8751L166.797 93.2051H166.807ZM165.537 92.1151C164.547 92.4451 163.887 92.9251 163.887 93.4051C163.887 93.7351 164.157 93.9251 164.697 93.9251C165.017 93.9251 165.407 93.8251 165.617 93.7351L165.537 92.1151ZM164.137 88.0751C164.137 87.5751 164.477 87.2551 164.927 87.2551C165.397 87.2551 165.717 87.5751 165.717 88.0751C165.717 88.5751 165.397 88.8851 164.927 88.8851C164.457 88.8851 164.137 88.5851 164.137 88.0751ZM166.057 88.0751C166.057 87.5751 166.377 87.2551 166.837 87.2551C167.297 87.2551 167.617 87.5751 167.617 88.0751C167.617 88.5751 167.297 88.8851 166.837 88.8851C166.377 88.8851 166.057 88.5851 166.057 88.0751Z" fill="#212C4A"/>
<path d="M167.037 95.3751C167.037 94.9651 167.347 94.5051 168.017 94.5051C169.167 94.5051 169.377 93.9151 169.487 93.0651L170.567 92.9751C170.557 93.1051 170.547 93.2051 170.547 93.3551C170.547 94.0351 170.787 94.4851 171.737 94.5051C172.197 94.5051 172.787 94.7151 172.787 95.3951C172.787 95.8151 172.607 96.3051 171.737 96.3051C170.607 96.3051 170.177 95.8251 169.947 95.2751C169.577 95.9051 168.967 96.3051 167.997 96.3051C167.247 96.3051 167.037 95.7951 167.037 95.3651V95.3751ZM169.777 98.6651C169.777 99.1551 169.457 99.4651 168.997 99.4651C168.537 99.4651 168.197 99.1751 168.197 98.6651C168.197 98.1551 168.537 97.8451 168.997 97.8451C169.457 97.8451 169.777 98.1551 169.777 98.6651ZM171.667 98.6651C171.667 99.1551 171.347 99.4651 170.887 99.4651C170.427 99.4651 170.107 99.1751 170.107 98.6651C170.107 98.1551 170.427 97.8451 170.887 97.8451C171.347 97.8451 171.667 98.1551 171.667 98.6651Z" fill="#212C4A"/>
<path d="M170.797 95.3751C170.797 95.0551 170.967 94.5151 171.737 94.5151H172.357C172.447 94.3751 172.517 94.2151 172.567 94.0451C172.657 93.7251 172.627 93.3351 172.597 92.8851L172.377 88.0351L173.797 87.9351L173.927 91.1151C173.957 92.0951 173.947 92.7051 173.907 92.9851C174.717 92.0051 175.857 91.3451 176.957 91.3451C178.507 91.3451 179.377 92.5751 179.377 93.6951C179.377 94.3751 179.137 95.2951 177.867 95.8151C177.137 96.1251 176.197 96.3051 173.777 96.3051H171.747C170.987 96.3051 170.807 95.7451 170.807 95.3651L170.797 95.3751ZM174.367 94.5251C175.877 94.5251 177.107 94.4251 177.487 94.2851C177.887 94.1451 178.157 93.9951 178.157 93.7051C178.157 93.3751 177.727 92.8151 176.707 92.8151C175.887 92.8151 174.847 93.3651 173.947 94.5251H174.367Z" fill="#212C4A"/>
<path d="M180.427 88.0351L181.827 87.9351L182.167 96.3151H180.767L180.427 88.0451V88.0351Z" fill="#212C4A"/>
<path d="M184.957 92.5851C185.197 93.0151 185.407 93.4051 185.557 93.7751C185.897 94.4051 186.307 94.5151 186.687 94.5151C187.147 94.5151 187.737 94.7251 187.737 95.4051C187.737 95.8251 187.557 96.3151 186.687 96.3151C186.587 96.3151 186.287 96.3051 186.067 96.1851C186.057 96.3551 186.037 96.5651 185.997 96.6851C185.667 98.1851 184.327 99.1751 183.227 99.1751C182.597 99.1751 181.847 98.9451 181.427 98.4451L181.567 97.2551C181.967 97.4451 182.487 97.5751 183.177 97.5751C183.797 97.5751 184.737 97.0551 184.907 95.9451C184.877 95.3951 184.177 94.1851 183.617 93.2251L184.957 92.5751V92.5851Z" fill="#212C4A"/>
<path d="M192.387 94.5151C192.847 94.5151 193.437 94.7251 193.437 95.4051C193.437 95.8251 193.257 96.3151 192.387 96.3151H192.057C191.197 96.3151 190.337 96.1051 189.577 95.7551C188.847 96.1051 187.977 96.3151 187.067 96.3151H186.687C185.997 96.3151 185.717 95.9051 185.717 95.4051C185.717 95.0651 185.937 94.5151 186.687 94.5151H186.867C187.167 94.5151 187.537 94.5151 187.937 94.4951C187.647 94.1051 187.497 93.6751 187.497 93.2151C187.497 91.7051 188.817 90.7951 189.697 90.7951C190.527 90.7951 191.577 91.5751 191.577 93.1251C191.577 93.6051 191.417 94.0651 191.147 94.4751C191.487 94.5051 191.847 94.5151 192.177 94.5151H192.387ZM187.517 88.8251C187.517 88.3251 187.857 88.0051 188.307 88.0051C188.777 88.0051 189.097 88.3251 189.097 88.8251C189.097 89.3251 188.777 89.6351 188.307 89.6351C187.837 89.6351 187.517 89.3351 187.517 88.8251ZM189.647 94.1751C190.107 93.9851 190.407 93.6751 190.407 93.2051C190.407 92.7951 190.037 92.2551 189.567 92.2551C188.997 92.2551 188.687 92.7051 188.687 93.1351C188.687 93.6351 189.077 93.9551 189.647 94.1751ZM189.427 88.8251C189.427 88.3251 189.747 88.0051 190.207 88.0051C190.667 88.0051 190.987 88.3251 190.987 88.8251C190.987 89.3251 190.667 89.6351 190.207 89.6351C189.747 89.6351 189.427 89.3351 189.427 88.8251Z" fill="#212C4A"/>
<path d="M192.427 94.5151C192.847 94.5051 193.077 94.3651 193.337 93.7251C193.957 92.3251 194.467 91.8451 195.467 91.8451C196.467 91.8451 197.147 92.7051 197.417 93.6651C197.787 94.4851 198.117 94.5251 198.407 94.5251C198.857 94.5251 199.447 94.7351 199.447 95.4151C199.447 95.8351 199.277 96.3251 198.407 96.3251C197.987 96.3251 197.507 96.1551 197.227 95.7651C196.967 96.1851 196.527 96.4651 195.937 96.4651C195.207 96.4651 194.497 96.1751 193.817 95.7451C193.507 96.0951 193.167 96.3251 192.397 96.3251H192.367C191.907 96.3251 191.317 96.1151 191.317 95.4251C191.317 95.0151 191.487 94.5251 192.357 94.5251H192.417L192.427 94.5151ZM196.347 94.3951C196.347 93.9151 195.937 93.3151 195.397 93.3151C195.047 93.3151 194.727 93.4951 194.477 94.1951C194.857 94.5051 195.537 94.7251 195.917 94.7251C196.177 94.7251 196.347 94.6551 196.347 94.4051V94.3951Z" fill="#212C4A"/>
<path d="M197.487 95.3851C197.487 95.0451 197.677 94.5051 198.427 94.5051H198.767C199.447 94.5051 199.927 94.4651 200.147 94.3151V94.2051C200.147 93.5451 199.687 92.5351 199.227 91.7651L200.587 91.3051C201.097 92.2451 201.457 93.5051 201.457 94.4551C201.457 94.8651 201.387 95.3551 201.227 95.6951C200.927 95.9651 200.367 96.3151 198.547 96.3151H198.437C197.677 96.3151 197.497 95.7651 197.497 95.3951L197.487 95.3851ZM199.737 98.6651C199.737 99.1551 199.417 99.4651 198.957 99.4651C198.497 99.4651 198.157 99.1751 198.157 98.6651C198.157 98.1551 198.497 97.8451 198.957 97.8451C199.417 97.8451 199.737 98.1551 199.737 98.6651ZM201.627 98.6651C201.627 99.1551 201.307 99.4651 200.847 99.4651C200.387 99.4651 200.087 99.1751 200.087 98.6651C200.087 98.1551 200.397 97.8451 200.847 97.8451C201.297 97.8451 201.627 98.1551 201.627 98.6651Z" fill="#212C4A"/>
<path d="M203.487 93.7651C203.667 94.2851 203.967 94.4451 204.627 94.4451C205.167 94.4451 205.807 94.2751 206.097 94.0151C206.197 93.9151 206.247 93.8251 206.237 93.7651C206.087 93.2251 205.827 92.0551 205.397 90.7151L206.727 90.2651C207.017 91.3251 207.237 92.3551 207.557 93.4651C207.817 94.3751 208.177 94.5051 208.787 94.5051C209.237 94.5051 209.827 94.7151 209.827 95.3951C209.827 95.8151 209.657 96.3051 208.787 96.3051C207.487 96.3051 207.087 95.8551 206.697 95.1551C206.407 95.8351 205.517 96.3051 204.427 96.3051C203.267 96.3051 202.427 95.7451 202.457 93.9551L203.487 93.7651Z" fill="#212C4A"/>
<path d="M207.817 95.3751C207.817 95.0251 208.087 94.5051 208.787 94.5051C209.597 94.5051 210.007 94.1651 209.947 93.2151L209.687 88.0351L211.107 87.9351L211.357 93.4251C211.467 95.4351 210.547 96.3151 208.787 96.3151C208.027 96.3151 207.817 95.7751 207.817 95.3751Z" fill="#212C4A"/>
<path d="M213.007 88.0351L214.407 87.9351L214.747 96.3151H213.347L213.007 88.0451V88.0351Z" fill="#212C4A"/>
<path d="M227.137 93.4951C227.527 94.4351 227.787 94.4851 228.107 94.5151C228.557 94.5151 229.147 94.7251 229.147 95.4051C229.147 95.8251 228.977 96.3151 228.107 96.3151C227.607 96.3151 227.207 96.0751 226.957 95.7151C226.707 96.1551 226.297 96.4551 225.727 96.4551C224.987 96.4551 224.417 96.2151 223.727 95.7851C223.637 96.1151 223.407 96.7451 223.267 96.9251C222.637 97.7951 221.007 98.5651 219.537 98.8451L218.657 97.8851C220.117 97.3051 221.967 96.2951 222.537 95.5151C222.717 95.3251 222.927 94.4751 223.117 93.9151C223.627 92.4451 224.227 91.8451 225.237 91.8451C226.147 91.8451 226.847 92.6251 227.127 93.5151L227.137 93.4951ZM226.097 94.2551C226.097 93.7751 225.677 93.3051 225.147 93.3051C224.807 93.3051 224.447 93.4851 224.227 94.1851C224.607 94.4951 225.297 94.7151 225.677 94.7151C225.937 94.7151 226.097 94.5051 226.097 94.2551Z" fill="#212C4A"/>
<path d="M227.147 95.3651C227.147 94.9651 227.387 94.5051 228.117 94.5051H228.207C228.497 94.5051 229.007 94.4851 229.277 94.4651C229.057 94.2551 228.727 93.8251 228.727 93.2051C228.727 91.8951 229.847 90.8851 231.237 90.8851C231.877 90.8851 232.357 91.0351 232.687 91.2651L232.837 92.6651C232.467 92.4751 231.857 92.3651 231.357 92.3651C230.477 92.3651 229.937 92.8151 229.937 93.1951C229.937 93.4551 230.167 93.7251 230.587 93.9751C230.837 94.1251 231.307 94.2251 231.547 94.2251C231.977 94.2251 232.857 94.0651 233.517 93.8351L233.227 95.5051C232.177 95.9751 230.217 96.3051 228.217 96.3051H228.107C227.327 96.3051 227.137 95.7551 227.137 95.3551L227.147 95.3651Z" fill="#212C4A"/>
<path d="M234.297 94.2352C234.767 94.4252 235.797 94.5052 236.477 94.5052C237.037 94.5052 237.587 94.4152 237.927 94.2652C237.917 93.4852 237.057 92.3752 235.447 91.5252L236.697 90.5352C237.987 91.1852 239.227 92.6952 239.227 94.3652C239.227 94.6752 239.197 95.1452 239.117 95.3852C238.547 95.9752 237.527 96.3052 236.187 96.3052C235.447 96.3052 234.887 96.1752 234.507 95.9652L234.287 94.2352H234.297Z" fill="#212C4A"/>
<path d="M239.227 97.0551C239.457 97.1651 240.017 97.3651 240.787 97.3651C241.937 97.3651 242.857 96.7051 243.247 95.7551C243.097 95.7651 242.917 95.7751 242.767 95.7751C241.687 95.7751 240.397 95.1651 240.397 93.5651C240.397 92.2651 241.377 91.3151 242.447 91.3151C243.947 91.3151 244.607 92.9051 244.607 94.4051C244.607 95.0251 244.537 95.5851 244.287 96.2651C243.657 98.0051 242.357 98.9051 240.977 98.9051C240.357 98.9051 239.477 98.7151 238.987 98.1551L239.217 97.0551H239.227ZM242.847 94.1551C243.017 94.1551 243.277 94.1451 243.457 94.1051C243.297 93.0251 242.617 92.6651 242.227 92.6651C241.677 92.6651 241.547 93.0651 241.547 93.2951C241.547 93.9351 242.197 94.1551 242.857 94.1551H242.847Z" fill="#212C4A"/>
<path d="M252.537 93.2051C252.597 94.2751 253.017 94.5051 253.757 94.5051C254.207 94.5051 254.797 94.7151 254.797 95.3951C254.797 95.8151 254.627 96.3051 253.757 96.3051C252.717 96.3051 251.977 96.0351 251.607 95.1651C251.207 95.4551 250.617 95.6151 250.177 95.6151C249.057 95.6151 248.327 94.8851 248.327 93.9451C248.327 93.1351 248.727 92.4451 249.477 91.8351C249.937 91.4551 250.627 91.0951 251.187 90.8151L251.167 89.9851L252.387 89.8751L252.527 93.2051H252.537ZM251.277 92.1151C250.287 92.4451 249.627 92.9251 249.627 93.4051C249.627 93.7351 249.897 93.9251 250.437 93.9251C250.757 93.9251 251.147 93.8251 251.357 93.7351L251.277 92.1151ZM249.867 88.0751C249.867 87.5751 250.207 87.2551 250.657 87.2551C251.127 87.2551 251.447 87.5751 251.447 88.0751C251.447 88.5751 251.127 88.8851 250.657 88.8851C250.187 88.8851 249.867 88.5851 249.867 88.0751ZM251.787 88.0751C251.787 87.5751 252.107 87.2551 252.567 87.2551C253.027 87.2551 253.347 87.5751 253.347 88.0751C253.347 88.5751 253.027 88.8851 252.567 88.8851C252.107 88.8851 251.787 88.5851 251.787 88.0751Z" fill="#212C4A"/>
<path d="M252.767 95.3751C252.767 94.9651 253.077 94.5051 253.747 94.5051C254.897 94.5051 255.107 93.9151 255.217 93.0651L256.297 92.9751C256.287 93.1051 256.277 93.2051 256.277 93.3551C256.277 94.0351 256.517 94.4851 257.467 94.5051C257.927 94.5051 258.517 94.7151 258.517 95.3951C258.517 95.8151 258.337 96.3051 257.467 96.3051C256.337 96.3051 255.907 95.8251 255.677 95.2751C255.307 95.9051 254.697 96.3051 253.727 96.3051C252.977 96.3051 252.767 95.7951 252.767 95.3651V95.3751ZM255.507 98.6651C255.507 99.1551 255.187 99.4651 254.727 99.4651C254.267 99.4651 253.927 99.1751 253.927 98.6651C253.927 98.1551 254.267 97.8451 254.727 97.8451C255.187 97.8451 255.507 98.1551 255.507 98.6651ZM257.397 98.6651C257.397 99.1551 257.077 99.4651 256.617 99.4651C256.157 99.4651 255.837 99.1751 255.837 98.6651C255.837 98.1551 256.157 97.8451 256.617 97.8451C257.077 97.8451 257.397 98.1551 257.397 98.6651Z" fill="#212C4A"/>
<path d="M257.517 94.5151C257.937 94.5051 258.167 94.3651 258.427 93.7251C259.047 92.3251 259.557 91.8451 260.557 91.8451C261.557 91.8451 262.237 92.7051 262.507 93.6651C262.877 94.4851 263.207 94.5251 263.497 94.5251C263.947 94.5251 264.537 94.7351 264.537 95.4151C264.537 95.8351 264.367 96.3251 263.497 96.3251C263.077 96.3251 262.597 96.1551 262.317 95.7651C262.057 96.1851 261.617 96.4651 261.027 96.4651C260.297 96.4651 259.587 96.1751 258.907 95.7451C258.597 96.0951 258.257 96.3251 257.487 96.3251H257.457C256.997 96.3251 256.407 96.1151 256.407 95.4251C256.407 95.0151 256.577 94.5251 257.447 94.5251H257.507L257.517 94.5151ZM261.427 94.3951C261.427 93.9151 261.017 93.3151 260.477 93.3151C260.127 93.3151 259.807 93.4951 259.557 94.1951C259.937 94.5051 260.617 94.7251 260.997 94.7251C261.257 94.7251 261.427 94.6551 261.427 94.4051V94.3951Z" fill="#212C4A"/>
<path d="M262.507 95.3751C262.507 94.9651 262.817 94.5051 263.487 94.5051C264.637 94.5051 264.847 93.9151 264.957 93.0651L266.037 92.9751C266.027 93.1051 266.017 93.2051 266.017 93.3551C266.017 94.0351 266.257 94.4851 267.207 94.5051C267.667 94.5051 268.257 94.7151 268.257 95.3951C268.257 95.8151 268.077 96.3051 267.207 96.3051C266.077 96.3051 265.647 95.8251 265.417 95.2751C265.047 95.9051 264.437 96.3051 263.467 96.3051C262.717 96.3051 262.507 95.7951 262.507 95.3651V95.3751ZM264.657 90.4151C264.657 89.8851 264.997 89.5451 265.467 89.5451C265.967 89.5451 266.287 89.8851 266.287 90.4151C266.287 90.9451 265.967 91.2551 265.467 91.2551C264.997 91.2551 264.657 90.9351 264.657 90.4151Z" fill="#212C4A"/>
<path d="M266.217 95.3751C266.217 94.9651 266.527 94.5051 267.197 94.5051C268.347 94.5051 268.557 93.9151 268.667 93.0651L269.747 92.9751C269.737 93.1051 269.727 93.2051 269.727 93.3551C269.727 94.0351 269.967 94.4851 270.917 94.5051C271.377 94.5051 271.967 94.7151 271.967 95.3951C271.967 95.8151 271.787 96.3051 270.917 96.3051C269.787 96.3051 269.357 95.8251 269.127 95.2751C268.757 95.9051 268.147 96.3051 267.177 96.3051C266.427 96.3051 266.217 95.7951 266.217 95.3651V95.3751ZM267.417 90.4451C267.417 89.9451 267.757 89.6351 268.207 89.6351C268.677 89.6351 268.997 89.9451 268.997 90.4451C268.997 90.9451 268.677 91.2551 268.207 91.2551C267.737 91.2551 267.417 90.9551 267.417 90.4451ZM269.337 90.4451C269.337 89.9451 269.657 89.6351 270.117 89.6351C270.577 89.6351 270.897 89.9451 270.897 90.4451C270.897 90.9451 270.577 91.2551 270.117 91.2551C269.657 91.2551 269.337 90.9551 269.337 90.4451Z" fill="#212C4A"/>
<path d="M269.927 95.3751C269.927 94.9651 270.237 94.5051 270.907 94.5051C271.707 94.5051 272.087 94.1651 272.037 92.9451L271.847 88.0351L273.237 87.9351L273.427 92.9551C273.487 94.1451 273.807 94.4551 274.567 94.5051C275.017 94.5051 275.607 94.7151 275.607 95.3951C275.607 95.8051 275.437 96.3051 274.567 96.3051C273.757 96.3051 273.117 95.9351 272.867 95.2751C272.377 96.0351 271.677 96.3051 270.897 96.3051C270.117 96.3051 269.927 95.7951 269.927 95.3651V95.3751Z" fill="#212C4A"/>
<path d="M273.597 95.3751C273.597 95.0251 273.867 94.5051 274.567 94.5051C275.377 94.5051 275.787 94.1651 275.727 93.2151L275.467 88.0351L276.887 87.9351L277.137 93.4251C277.247 95.4351 276.327 96.3151 274.567 96.3151C273.807 96.3151 273.597 95.7751 273.597 95.3751Z" fill="#212C4A"/>
<path d="M285.487 93.2051C285.547 94.2751 285.967 94.5051 286.707 94.5051C287.157 94.5051 287.747 94.7151 287.747 95.3951C287.747 95.8151 287.577 96.3051 286.707 96.3051C285.667 96.3051 284.927 96.0351 284.557 95.1651C284.157 95.4551 283.567 95.6151 283.127 95.6151C282.007 95.6151 281.277 94.8851 281.277 93.9451C281.277 93.1351 281.677 92.4451 282.427 91.8351C282.887 91.4551 283.577 91.0951 284.137 90.8151L284.117 89.9851L285.337 89.8751L285.477 93.2051H285.487ZM284.217 92.1151C283.227 92.4451 282.567 92.9251 282.567 93.4051C282.567 93.7351 282.837 93.9251 283.377 93.9251C283.697 93.9251 284.087 93.8251 284.297 93.7351L284.217 92.1151ZM282.817 88.0751C282.817 87.5751 283.157 87.2551 283.607 87.2551C284.077 87.2551 284.397 87.5751 284.397 88.0751C284.397 88.5751 284.077 88.8851 283.607 88.8851C283.137 88.8851 282.817 88.5851 282.817 88.0751ZM284.737 88.0751C284.737 87.5751 285.057 87.2551 285.517 87.2551C285.977 87.2551 286.297 87.5751 286.297 88.0751C286.297 88.5751 285.977 88.8851 285.517 88.8851C285.057 88.8851 284.737 88.5851 284.737 88.0751Z" fill="#212C4A"/>
<path d="M285.717 95.3751C285.717 94.9651 286.027 94.5051 286.697 94.5051C287.847 94.5051 288.057 93.9151 288.167 93.0651L289.247 92.9751C289.237 93.1051 289.227 93.2051 289.227 93.3551C289.227 94.0351 289.467 94.4851 290.417 94.5051C290.877 94.5051 291.467 94.7151 291.467 95.3951C291.467 95.8151 291.287 96.3051 290.417 96.3051C289.287 96.3051 288.857 95.8251 288.627 95.2751C288.257 95.9051 287.647 96.3051 286.677 96.3051C285.927 96.3051 285.717 95.7951 285.717 95.3651V95.3751ZM287.857 90.4151C287.857 89.8851 288.197 89.5451 288.667 89.5451C289.167 89.5451 289.487 89.8851 289.487 90.4151C289.487 90.9451 289.167 91.2551 288.667 91.2551C288.197 91.2551 287.857 90.9351 287.857 90.4151Z" fill="#212C4A"/>
<path d="M289.477 95.3751C289.477 95.0551 289.647 94.5151 290.417 94.5151H291.037C291.127 94.3751 291.197 94.2151 291.247 94.0451C291.337 93.7251 291.307 93.3351 291.287 92.8851L291.067 88.0351L292.487 87.9351L292.607 91.1151C292.637 92.0951 292.627 92.7051 292.587 92.9851C293.397 92.0051 294.537 91.3451 295.637 91.3451C297.187 91.3451 298.057 92.5751 298.057 93.6951C298.057 94.3751 297.817 95.2951 296.547 95.8151C295.817 96.1251 294.877 96.3051 292.457 96.3051H290.427C289.667 96.3051 289.487 95.7451 289.487 95.3651L289.477 95.3751ZM293.047 94.5251C294.557 94.5251 295.787 94.4251 296.167 94.2851C296.567 94.1451 296.837 93.9951 296.837 93.7051C296.837 93.3751 296.407 92.8151 295.387 92.8151C294.567 92.8151 293.527 93.3651 292.627 94.5251H293.047Z" fill="#212C4A"/>
<path d="M299.107 88.0351L300.507 87.9351L300.847 96.3151H299.447L299.107 88.0451V88.0351Z" fill="#212C4A"/>
<path d="M307.207 94.5151C307.667 94.5151 308.257 94.7251 308.257 95.4051C308.257 95.8251 308.087 96.3151 307.217 96.3151H306.297C305.857 98.0751 304.427 99.3151 302.887 99.3151C302.297 99.3151 301.367 99.1851 300.777 98.5651L301.037 97.4151C301.407 97.6051 301.837 97.7651 302.657 97.7651C303.707 97.7651 304.547 97.2451 304.937 96.3151C302.747 96.3151 302.147 95.1251 302.147 93.9951C302.147 92.5651 303.227 91.6951 304.227 91.6951C304.957 91.6951 306.227 92.2151 306.417 94.5151H307.207ZM305.097 94.5151C304.947 93.5451 304.467 93.0851 303.987 93.0851C303.577 93.0851 303.317 93.3851 303.317 93.7051C303.317 94.0751 303.547 94.5151 304.957 94.5151H305.097Z" fill="#212C4A"/>
<path d="M307.267 94.5151C307.687 94.5051 307.917 94.3651 308.177 93.7251C308.797 92.3251 309.307 91.8451 310.307 91.8451C311.307 91.8451 311.987 92.7051 312.257 93.6651C312.627 94.4851 312.957 94.5251 313.247 94.5251C313.697 94.5251 314.287 94.7351 314.287 95.4151C314.287 95.8351 314.117 96.3251 313.247 96.3251C312.827 96.3251 312.347 96.1551 312.067 95.7651C311.807 96.1851 311.367 96.4651 310.777 96.4651C310.047 96.4651 309.337 96.1751 308.657 95.7451C308.347 96.0951 308.007 96.3251 307.237 96.3251H307.207C306.747 96.3251 306.157 96.1151 306.157 95.4251C306.157 95.0151 306.327 94.5251 307.197 94.5251H307.257L307.267 94.5151ZM311.177 94.3951C311.177 93.9151 310.767 93.3151 310.227 93.3151C309.877 93.3151 309.557 93.4951 309.307 94.1951C309.687 94.5051 310.367 94.7251 310.747 94.7251C311.007 94.7251 311.177 94.6551 311.177 94.4051V94.3951Z" fill="#212C4A"/>
<path d="M312.287 95.3751C312.287 95.0251 312.557 94.5051 313.257 94.5051C314.067 94.5051 314.477 94.1651 314.417 93.2151L314.157 88.0351L315.577 87.9351L315.827 93.4251C315.937 95.4351 315.017 96.3151 313.257 96.3151C312.497 96.3151 312.287 95.7751 312.287 95.3751Z" fill="#212C4A"/>
<path d="M317.477 88.0351L318.877 87.9351L319.217 96.3151H317.817L317.477 88.0451V88.0351Z" fill="#212C4A"/>
<path d="M329.567 93.4751C329.677 94.4651 330.267 94.5151 330.697 94.5151C331.157 94.5151 331.747 94.7251 331.747 95.4051C331.747 95.8251 331.567 96.3151 330.697 96.3151C330.427 96.3151 329.957 96.2451 329.637 95.8351C329.587 96.6951 329.387 97.2151 329.097 97.5451C328.387 98.4951 327.227 98.8651 326.167 98.8651C324.577 98.8651 323.277 97.9051 323.277 96.0751C323.277 95.5551 323.427 94.8651 323.707 94.2351L324.757 94.4151C324.627 94.8551 324.587 95.2051 324.587 95.5251C324.587 96.5651 325.247 97.2751 326.437 97.2751C327.097 97.2751 327.857 97.0551 328.197 96.6151C328.287 96.5051 328.297 96.3151 328.287 96.0651L327.957 88.0151L329.377 87.9251L329.567 93.4651V93.4751Z" fill="#212C4A"/>
<path d="M329.707 95.3751C329.707 94.9651 330.017 94.5051 330.687 94.5051C331.837 94.5051 332.047 93.9151 332.157 93.0651L333.237 92.9751C333.227 93.1051 333.217 93.2051 333.217 93.3551C333.217 94.0351 333.457 94.4851 334.407 94.5051C334.867 94.5051 335.457 94.7151 335.457 95.3951C335.457 95.8151 335.277 96.3051 334.407 96.3051C333.277 96.3051 332.847 95.8251 332.617 95.2751C332.247 95.9051 331.637 96.3051 330.667 96.3051C329.917 96.3051 329.707 95.7951 329.707 95.3651V95.3751ZM332.447 98.6651C332.447 99.1551 332.127 99.4651 331.667 99.4651C331.207 99.4651 330.867 99.1751 330.867 98.6651C330.867 98.1551 331.207 97.8451 331.667 97.8451C332.127 97.8451 332.447 98.1551 332.447 98.6651ZM334.337 98.6651C334.337 99.1551 334.017 99.4651 333.557 99.4651C333.097 99.4651 332.777 99.1751 332.777 98.6651C332.777 98.1551 333.097 97.8451 333.557 97.8451C334.017 97.8451 334.337 98.1551 334.337 98.6651Z" fill="#212C4A"/>
<path d="M333.437 95.4151C333.437 94.9551 333.727 94.5151 334.407 94.5151H334.637C335.957 94.5151 337.207 94.3651 338.197 94.0451C338.747 93.8851 339.007 93.7851 339.317 93.6751C338.527 93.3351 337.407 92.8951 336.577 92.8951C336.097 92.8951 335.477 92.9651 334.957 93.1851L335.257 91.6351C335.657 91.4251 336.257 91.3751 336.727 91.3751C337.877 91.3751 338.807 91.7951 339.827 92.2451C340.737 92.6251 341.027 92.7051 341.447 92.7051H341.957L341.717 94.2951H341.627C341.047 94.2951 340.377 94.5251 339.777 94.8851C337.897 96.0151 336.397 96.3251 334.627 96.3251H334.397C333.807 96.3251 333.427 95.9851 333.427 95.4251L333.437 95.4151ZM338.917 98.0951C338.917 98.6251 338.597 98.9351 338.097 98.9351C337.627 98.9351 337.287 98.6151 337.287 98.0951C337.287 97.5751 337.627 97.2351 338.097 97.2351C338.597 97.2351 338.917 97.5651 338.917 98.0951Z" fill="#212C4A"/>
<path d="M349.777 93.2051C349.837 94.2751 350.257 94.5051 350.997 94.5051C351.447 94.5051 352.037 94.7151 352.037 95.3951C352.037 95.8151 351.867 96.3051 350.997 96.3051C349.957 96.3051 349.217 96.0351 348.847 95.1651C348.447 95.4551 347.857 95.6151 347.417 95.6151C346.297 95.6151 345.567 94.8851 345.567 93.9451C345.567 93.1351 345.967 92.4451 346.717 91.8351C347.177 91.4551 347.867 91.0951 348.427 90.8151L348.407 89.9851L349.627 89.8751L349.767 93.2051H349.777ZM348.507 92.1151C347.517 92.4451 346.857 92.9251 346.857 93.4051C346.857 93.7351 347.127 93.9251 347.667 93.9251C347.987 93.9251 348.377 93.8251 348.587 93.7351L348.507 92.1151ZM347.107 88.0751C347.107 87.5751 347.447 87.2551 347.897 87.2551C348.367 87.2551 348.687 87.5751 348.687 88.0751C348.687 88.5751 348.367 88.8851 347.897 88.8851C347.427 88.8851 347.107 88.5851 347.107 88.0751ZM349.017 88.0751C349.017 87.5751 349.337 87.2551 349.797 87.2551C350.257 87.2551 350.577 87.5751 350.577 88.0751C350.577 88.5751 350.257 88.8851 349.797 88.8851C349.337 88.8851 349.017 88.5851 349.017 88.0751Z" fill="#212C4A"/>
<path d="M350.037 95.4151C350.037 94.9151 350.307 94.5151 350.997 94.5151C351.947 94.5151 352.367 94.2251 352.527 93.2351L353.727 93.1951C353.707 93.2851 353.627 93.4951 353.607 93.7051C353.547 94.2051 353.677 94.6051 354.157 94.6051C354.587 94.6051 354.947 94.3951 355.137 93.3751L356.297 93.3251C356.267 93.5051 356.237 93.6151 356.227 93.7951C356.157 94.4351 356.387 94.6051 356.717 94.6051C357.337 94.6051 357.587 93.8251 357.697 92.9451L358.817 92.8551C358.807 93.0051 358.787 93.0451 358.787 93.2851C358.777 94.0351 359.007 94.5051 359.967 94.5051C360.407 94.5051 361.017 94.7151 361.017 95.3951C361.017 95.8151 360.837 96.3051 359.967 96.3051C359.247 96.3051 358.527 96.1451 358.167 95.3151C357.857 95.9351 357.287 96.3051 356.647 96.3051C355.907 96.3051 355.597 95.9351 355.427 95.5051C355.097 96.0351 354.637 96.3051 353.957 96.3051C353.227 96.3051 352.897 95.8751 352.757 95.5051C352.407 95.9951 351.777 96.3051 351.007 96.3051C350.237 96.3051 350.047 95.7951 350.047 95.4051L350.037 95.4151Z" fill="#212C4A"/>
<path d="M358.977 95.4151C358.977 94.9151 359.267 94.5151 359.947 94.5151C360.897 94.5151 361.307 94.2451 361.467 93.2451L362.667 93.1851C362.617 93.3451 362.587 93.4751 362.567 93.6851C362.497 94.2151 362.597 94.5951 363.107 94.5951C363.617 94.5951 363.937 94.1951 364.087 93.3151L365.247 93.2651C365.217 93.4351 365.187 93.5551 365.177 93.7251C365.127 94.3951 365.437 94.5951 365.897 94.5951C366.217 94.5951 366.577 94.3851 366.577 94.0051C366.577 93.6251 366.317 92.9651 366.147 92.5551L367.527 92.2351C367.687 92.6151 367.787 93.1751 367.787 93.7951C367.787 95.4351 366.877 96.3051 365.737 96.3051C364.957 96.3051 364.567 95.8851 364.367 95.5151C364.057 96.0351 363.567 96.3051 362.917 96.3051C362.137 96.3051 361.857 95.9151 361.687 95.5151C361.337 96.0051 360.717 96.3051 359.947 96.3051C359.177 96.3051 358.977 95.7951 358.977 95.4051V95.4151Z" fill="#212C4A"/>
<path d="M374.007 94.5151C374.467 94.5151 375.057 94.7251 375.057 95.4051C375.057 95.8251 374.887 96.3151 374.017 96.3151H373.097C372.657 98.0751 371.227 99.3151 369.687 99.3151C369.097 99.3151 368.167 99.1851 367.577 98.5651L367.837 97.4151C368.207 97.6051 368.637 97.7651 369.457 97.7651C370.507 97.7651 371.347 97.2451 371.737 96.3151C369.547 96.3151 368.947 95.1251 368.947 93.9951C368.947 92.5651 370.027 91.6951 371.027 91.6951C371.757 91.6951 373.027 92.2151 373.217 94.5151H374.007ZM370.707 90.3751C370.077 90.3751 369.587 90.4251 369.177 90.5951L369.257 89.8351C369.387 89.7551 369.597 89.6951 369.747 89.6851C369.567 89.5451 369.357 89.3651 369.357 88.9851C369.357 88.2351 370.017 87.9251 370.657 87.9251C371.237 87.9251 371.637 88.0951 371.807 88.2551L371.587 89.0051C371.367 88.8351 370.967 88.7351 370.717 88.7351C370.397 88.7351 370.177 88.8951 370.177 89.0751C370.177 89.3651 370.497 89.5451 371.067 89.5451H371.977L371.647 90.3751H370.687H370.707ZM371.897 94.5151C371.747 93.5451 371.267 93.0851 370.787 93.0851C370.377 93.0851 370.117 93.3851 370.117 93.7051C370.117 94.0751 370.347 94.5151 371.757 94.5151H371.897Z" fill="#212C4A"/>
<path d="M372.957 95.4151C372.957 95.0051 373.137 94.5151 374.007 94.5151H374.037C374.537 94.5151 374.707 94.3351 374.957 93.7251C375.577 92.2951 376.087 91.7051 377.087 91.7051C378.417 91.7051 379.127 93.2151 379.127 94.4551C379.127 95.4451 378.577 96.3151 377.527 96.3151C376.787 96.3151 376.147 96.0251 375.457 95.5951C375.157 95.9851 374.877 96.3151 374.027 96.3151H373.977C373.537 96.3151 372.927 96.1051 372.927 95.4151H372.957ZM377.527 94.5751C377.797 94.5751 377.957 94.5051 377.957 94.2551C377.957 93.7751 377.537 93.1751 377.007 93.1751C376.657 93.1751 376.357 93.3551 376.117 94.0551C376.487 94.3651 377.147 94.5851 377.517 94.5851L377.527 94.5751Z" fill="#212C4A"/>
<path d="M160.497 111.505C160.497 108.625 162.607 106.975 165.447 106.975C166.567 106.975 167.427 107.195 167.857 107.385L167.447 108.965C166.967 108.755 166.377 108.595 165.437 108.595C163.787 108.595 162.547 109.505 162.547 111.395C162.547 113.185 163.687 114.235 165.287 114.235C165.727 114.235 166.087 114.185 166.237 114.105V112.295H164.917V110.765H168.147V115.335C167.547 115.555 166.397 115.825 165.257 115.825C163.677 115.825 162.527 115.425 161.737 114.665C160.937 113.905 160.507 112.775 160.517 111.495L160.497 111.505Z" fill="#212C4A"/>
<path d="M172.507 109.305C174.537 109.305 175.327 110.885 175.327 112.445C175.327 112.795 175.277 113.075 175.247 113.215H171.197C171.257 114.025 172.057 114.415 172.977 114.415C173.647 114.415 174.177 114.325 174.717 114.145L174.977 115.485C174.337 115.745 173.537 115.885 172.697 115.885C170.557 115.885 169.337 114.635 169.337 112.665C169.337 111.075 170.327 109.305 172.517 109.305H172.507ZM173.497 111.875C173.497 111.415 173.277 110.605 172.387 110.605C171.567 110.605 171.227 111.365 171.177 111.875H173.497Z" fill="#212C4A"/>
<path d="M176.457 111.455C176.457 110.665 176.427 110.015 176.407 109.445H178.117L178.207 110.325H178.247C178.507 109.915 179.137 109.305 180.187 109.305C181.477 109.305 182.437 110.155 182.437 112.005V115.735H180.477V112.245C180.477 111.435 180.177 110.885 179.487 110.885C178.947 110.885 178.627 111.255 178.497 111.615C178.447 111.735 178.417 111.925 178.417 112.105V115.735H176.447V111.455H176.457Z" fill="#212C4A"/>
<path d="M186.827 109.305C188.857 109.305 189.647 110.885 189.647 112.445C189.647 112.795 189.597 113.075 189.567 113.215H185.517C185.577 114.025 186.377 114.415 187.287 114.415C187.957 114.415 188.487 114.325 189.027 114.145L189.287 115.485C188.647 115.745 187.847 115.885 187.007 115.885C184.867 115.885 183.647 114.635 183.647 112.665C183.647 111.075 184.637 109.305 186.827 109.305ZM187.817 111.875C187.817 111.415 187.597 110.605 186.707 110.605C185.887 110.605 185.547 111.365 185.497 111.875H187.807H187.817Z" fill="#212C4A"/>
<path d="M190.787 111.515C190.787 110.585 190.777 109.985 190.737 109.445H192.417L192.497 110.605H192.547C192.867 109.675 193.627 109.305 194.247 109.305C194.427 109.305 194.517 109.305 194.667 109.335V111.175C194.517 111.145 194.347 111.125 194.127 111.125C193.417 111.125 192.917 111.515 192.787 112.115C192.757 112.245 192.747 112.405 192.747 112.555V115.745H190.777V111.525L190.787 111.515Z" fill="#212C4A"/>
<path d="M198.817 111.545V111.455C198.817 111.125 198.637 110.645 197.657 110.645C197.017 110.645 196.357 110.875 195.937 111.125L195.577 109.875C196.017 109.615 196.877 109.305 198.017 109.305C200.117 109.305 200.767 110.545 200.767 112.015V114.205C200.767 114.805 200.807 115.375 200.867 115.735H199.107L198.987 115.115H198.947C198.537 115.605 197.897 115.875 197.147 115.875C195.877 115.875 195.117 114.965 195.117 113.955C195.117 112.305 196.587 111.535 198.807 111.535L198.817 111.545ZM197.847 114.495C198.327 114.495 198.727 114.175 198.847 113.775C198.887 113.685 198.887 113.555 198.887 113.455V112.745C197.847 112.755 197.057 113.005 197.057 113.745C197.057 114.245 197.387 114.495 197.837 114.495H197.847Z" fill="#212C4A"/>
<path d="M202.497 113.455V110.885H201.647V109.445H202.497V108.095L204.417 107.645V109.445H205.817V110.885H204.417V113.165C204.417 113.925 204.597 114.275 205.177 114.275C205.437 114.275 205.627 114.245 205.767 114.215V115.705C205.517 115.795 205.057 115.885 204.517 115.885C203.877 115.885 203.347 115.665 203.027 115.335C202.667 114.965 202.497 114.375 202.497 113.475V113.455Z" fill="#212C4A"/>
<path d="M206.897 107.695C206.897 107.125 207.307 106.705 207.927 106.705C208.547 106.705 208.957 107.125 208.957 107.695C208.967 108.235 208.557 108.675 207.907 108.675C207.287 108.675 206.907 108.235 206.907 107.695H206.897ZM206.937 109.445H208.907V115.735H206.937V109.445Z" fill="#212C4A"/>
<path d="M213.467 109.305C215.357 109.305 216.677 110.565 216.677 112.585C216.677 114.935 214.877 115.875 213.307 115.875C211.507 115.875 210.107 114.665 210.107 112.595C210.107 110.525 211.607 109.305 213.467 109.305ZM213.397 114.475C214.247 114.475 214.657 113.635 214.657 112.605C214.657 111.715 214.347 110.685 213.397 110.685C212.447 110.685 212.127 111.715 212.127 112.585C212.127 113.585 212.537 114.465 213.397 114.465V114.475Z" fill="#212C4A"/>
<path d="M217.857 111.455C217.857 110.665 217.827 110.015 217.807 109.445H219.517L219.607 110.325H219.647C219.907 109.915 220.537 109.305 221.587 109.305C222.877 109.305 223.837 110.155 223.837 112.005V115.735H221.877V112.245C221.877 111.435 221.577 110.885 220.887 110.885C220.347 110.885 220.027 111.255 219.897 111.615C219.847 111.735 219.817 111.925 219.817 112.105V115.735H217.847V111.455H217.857Z" fill="#212C4A"/>
<path d="M231.517 109.305C233.407 109.305 234.727 110.565 234.727 112.585C234.727 114.935 232.927 115.875 231.357 115.875C229.557 115.875 228.157 114.665 228.157 112.595C228.157 110.525 229.657 109.305 231.517 109.305ZM231.457 114.475C232.307 114.475 232.717 113.635 232.717 112.605C232.717 111.715 232.407 110.685 231.457 110.685C230.507 110.685 230.187 111.715 230.187 112.585C230.187 113.585 230.597 114.465 231.457 114.465V114.475Z" fill="#212C4A"/>
<path d="M236.147 110.885H235.307V109.445H236.147V109.205C236.147 108.445 236.377 107.625 236.947 107.095C237.447 106.635 238.107 106.465 238.687 106.465C239.127 106.465 239.527 106.525 239.757 106.615L239.547 108.105C239.377 108.055 239.217 108.015 238.997 108.015C238.357 108.015 238.107 108.465 238.107 109.125V109.445H239.367V110.885H238.117V115.735H236.147V110.885Z" fill="#212C4A"/>
<path d="M247.837 106.935C248.857 106.935 249.637 107.125 249.977 107.325L249.567 108.865C249.177 108.695 248.627 108.545 247.937 108.545C246.397 108.545 245.177 109.485 245.177 111.415C245.177 113.155 246.207 114.245 247.957 114.245C248.547 114.245 249.207 114.115 249.587 113.965L249.887 115.505C249.527 115.675 248.717 115.875 247.667 115.875C244.667 115.875 243.127 113.995 243.127 111.525C243.127 108.565 245.237 106.935 247.857 106.935H247.837Z" fill="#212C4A"/>
<path d="M250.977 107.695C250.977 107.125 251.387 106.705 252.007 106.705C252.627 106.705 253.037 107.125 253.037 107.695C253.047 108.235 252.637 108.675 251.987 108.675C251.367 108.675 250.987 108.235 250.987 107.695H250.977ZM251.017 109.445H252.987V115.735H251.017V109.445Z" fill="#212C4A"/>
<path d="M254.827 113.455V110.885H253.977V109.445H254.827V108.095L256.747 107.645V109.445H258.147V110.885H256.747V113.165C256.747 113.925 256.927 114.275 257.507 114.275C257.767 114.275 257.957 114.245 258.097 114.215V115.705C257.847 115.795 257.387 115.885 256.847 115.885C256.207 115.885 255.677 115.665 255.357 115.335C254.997 114.965 254.827 114.375 254.827 113.475V113.455Z" fill="#212C4A"/>
<path d="M259.227 107.695C259.227 107.125 259.637 106.705 260.257 106.705C260.877 106.705 261.287 107.125 261.287 107.695C261.297 108.235 260.887 108.675 260.237 108.675C259.617 108.675 259.237 108.235 259.237 107.695H259.227ZM259.257 109.445H261.227V115.735H259.257V109.445Z" fill="#212C4A"/>
<path d="M262.297 114.615L264.277 112.135C264.637 111.725 264.907 111.405 265.267 111.025V110.995H262.517V109.435H267.657V110.615L265.767 112.985C265.417 113.395 265.097 113.795 264.737 114.145V114.185H267.757V115.725H262.287V114.605L262.297 114.615Z" fill="#212C4A"/>
<path d="M271.537 109.305C273.567 109.305 274.357 110.885 274.357 112.445C274.357 112.795 274.307 113.075 274.277 113.215H270.227C270.287 114.025 271.087 114.415 271.997 114.415C272.667 114.415 273.197 114.325 273.737 114.145L273.997 115.485C273.357 115.745 272.557 115.885 271.717 115.885C269.577 115.885 268.357 114.635 268.357 112.665C268.357 111.075 269.347 109.305 271.537 109.305ZM272.527 111.875C272.527 111.415 272.307 110.605 271.417 110.605C270.597 110.605 270.257 111.365 270.207 111.875H272.527Z" fill="#212C4A"/>
<path d="M275.497 111.455C275.497 110.665 275.467 110.015 275.447 109.445H277.157L277.247 110.325H277.287C277.547 109.915 278.177 109.305 279.227 109.305C280.517 109.305 281.477 110.155 281.477 112.005V115.735H279.517V112.245C279.517 111.435 279.217 110.885 278.527 110.885C277.987 110.885 277.667 111.255 277.537 111.615C277.487 111.735 277.457 111.925 277.457 112.105V115.735H275.487V111.455H275.497Z" fill="#212C4A"/>
<path d="M283.037 106.605H285.007V110.205H285.037C285.247 109.925 285.517 109.705 285.807 109.545C286.097 109.385 286.467 109.305 286.827 109.305C288.077 109.305 289.027 110.165 289.027 112.075V115.745H287.067V112.285C287.067 111.465 286.787 110.895 286.047 110.895C285.537 110.895 285.207 111.225 285.067 111.575C285.027 111.705 285.007 111.875 285.007 112.015V115.745H283.037V106.615V106.605Z" fill="#212C4A"/>
<path d="M293.577 109.305C295.467 109.305 296.787 110.565 296.787 112.585C296.787 114.935 294.987 115.875 293.417 115.875C291.617 115.875 290.217 114.665 290.217 112.595C290.217 110.525 291.717 109.305 293.577 109.305ZM293.517 114.475C294.367 114.475 294.777 113.635 294.777 112.605C294.777 111.715 294.467 110.685 293.517 110.685C292.567 110.685 292.247 111.715 292.247 112.585C292.247 113.585 292.657 114.465 293.517 114.465V114.475Z" fill="#212C4A"/>
<path d="M301.017 109.305C302.907 109.305 304.237 110.565 304.237 112.585C304.237 114.935 302.437 115.875 300.867 115.875C299.067 115.875 297.667 114.665 297.667 112.595C297.667 110.525 299.167 109.305 301.027 109.305H301.017ZM300.957 114.475C301.807 114.475 302.217 113.635 302.217 112.605C302.217 111.715 301.907 110.685 300.957 110.685C300.007 110.685 299.687 111.715 299.687 112.585C299.687 113.585 300.097 114.465 300.957 114.465V114.475Z" fill="#212C4A"/>
<path d="M307.907 109.305C308.697 109.305 309.297 109.575 309.577 110.015H309.607V106.605H311.567V113.855C311.567 114.575 311.597 115.325 311.617 115.735H309.867L309.787 114.825H309.757C309.357 115.535 308.587 115.875 307.787 115.875C306.297 115.875 305.097 114.605 305.097 112.645C305.087 110.535 306.407 109.305 307.897 109.305H307.907ZM308.427 114.315C308.997 114.315 309.447 113.925 309.557 113.375C309.597 113.235 309.607 113.095 309.607 112.925V112.115C309.607 111.995 309.597 111.865 309.567 111.745C309.467 111.235 309.037 110.805 308.437 110.805C307.547 110.805 307.097 111.605 307.097 112.585C307.097 113.655 307.607 114.325 308.427 114.325V114.315Z" fill="#212C4A"/>
<path d="M316.307 107.065H321.607V108.675H318.277V110.665H321.387V112.245H318.277V115.735H316.307V107.065Z" fill="#212C4A"/>
<path d="M325.677 109.305C327.567 109.305 328.887 110.565 328.887 112.585C328.887 114.935 327.087 115.875 325.517 115.875C323.717 115.875 322.317 114.665 322.317 112.595C322.317 110.525 323.817 109.305 325.677 109.305ZM325.617 114.475C326.467 114.475 326.877 113.635 326.877 112.605C326.877 111.715 326.567 110.685 325.617 110.685C324.667 110.685 324.347 111.715 324.347 112.585C324.347 113.585 324.757 114.465 325.617 114.465V114.475Z" fill="#212C4A"/>
<path d="M330.067 109.445H332.037V112.815C332.037 113.725 332.307 114.295 333.017 114.295C333.547 114.295 333.867 113.945 333.997 113.615C334.037 113.495 334.057 113.355 334.057 113.195V109.455H336.027V113.735C336.027 114.545 336.057 115.215 336.077 115.745H334.367L334.277 114.855H334.247C333.967 115.295 333.387 115.885 332.267 115.885C331.017 115.885 330.067 115.135 330.067 113.145V109.455V109.445Z" fill="#212C4A"/>
<path d="M337.567 111.455C337.567 110.665 337.537 110.015 337.517 109.445H339.227L339.317 110.325H339.357C339.617 109.915 340.247 109.305 341.297 109.305C342.587 109.305 343.547 110.155 343.547 112.005V115.735H341.587V112.245C341.587 111.435 341.287 110.885 340.597 110.885C340.057 110.885 339.737 111.255 339.607 111.615C339.557 111.735 339.527 111.925 339.527 112.105V115.735H337.557V111.455H337.567Z" fill="#212C4A"/>
<path d="M347.557 109.305C348.347 109.305 348.947 109.575 349.227 110.015H349.257V106.605H351.217V113.855C351.217 114.575 351.247 115.325 351.267 115.735H349.517L349.437 114.825H349.407C349.007 115.535 348.237 115.875 347.437 115.875C345.947 115.875 344.747 114.605 344.747 112.645C344.737 110.535 346.057 109.305 347.547 109.305H347.557ZM348.077 114.315C348.647 114.315 349.097 113.925 349.207 113.375C349.247 113.235 349.257 113.095 349.257 112.925V112.115C349.257 111.995 349.247 111.865 349.217 111.745C349.117 111.235 348.687 110.805 348.087 110.805C347.197 110.805 346.747 111.605 346.747 112.585C346.747 113.655 347.257 114.325 348.077 114.325V114.315Z" fill="#212C4A"/>
<path d="M356.057 111.545V111.455C356.057 111.125 355.877 110.645 354.897 110.645C354.257 110.645 353.597 110.875 353.177 111.125L352.817 109.875C353.257 109.615 354.117 109.305 355.257 109.305C357.357 109.305 358.007 110.545 358.007 112.015V114.205C358.007 114.805 358.047 115.375 358.107 115.735H356.347L356.227 115.115H356.187C355.777 115.605 355.137 115.875 354.387 115.875C353.117 115.875 352.357 114.965 352.357 113.955C352.357 112.305 353.827 111.535 356.047 111.535L356.057 111.545ZM355.087 114.495C355.567 114.495 355.967 114.175 356.087 113.775C356.127 113.685 356.127 113.555 356.127 113.455V112.745C355.087 112.755 354.297 113.005 354.297 113.745C354.297 114.245 354.627 114.495 355.077 114.495H355.087Z" fill="#212C4A"/>
<path d="M359.737 113.455V110.885H358.887V109.445H359.737V108.095L361.657 107.645V109.445H363.057V110.885H361.657V113.165C361.657 113.925 361.837 114.275 362.417 114.275C362.677 114.275 362.867 114.245 363.007 114.215V115.705C362.757 115.795 362.297 115.885 361.757 115.885C361.117 115.885 360.587 115.665 360.267 115.335C359.907 114.965 359.737 114.375 359.737 113.475V113.455Z" fill="#212C4A"/>
<path d="M364.137 107.695C364.137 107.125 364.547 106.705 365.167 106.705C365.787 106.705 366.197 107.125 366.197 107.695C366.207 108.235 365.797 108.675 365.147 108.675C364.527 108.675 364.147 108.235 364.147 107.695H364.137ZM364.177 109.445H366.147V115.735H364.177V109.445Z" fill="#212C4A"/>
<path d="M370.707 109.305C372.597 109.305 373.927 110.565 373.927 112.585C373.927 114.935 372.127 115.875 370.557 115.875C368.757 115.875 367.357 114.665 367.357 112.595C367.357 110.525 368.857 109.305 370.717 109.305H370.707ZM370.637 114.475C371.487 114.475 371.897 113.635 371.897 112.605C371.897 111.715 371.587 110.685 370.637 110.685C369.687 110.685 369.367 111.715 369.367 112.585C369.367 113.585 369.777 114.465 370.637 114.465V114.475Z" fill="#212C4A"/>
<path d="M375.097 111.455C375.097 110.665 375.067 110.015 375.047 109.445H376.757L376.847 110.325H376.887C377.147 109.915 377.777 109.305 378.827 109.305C380.117 109.305 381.077 110.155 381.077 112.005V115.735H379.117V112.245C379.117 111.435 378.817 110.885 378.127 110.885C377.587 110.885 377.267 111.255 377.137 111.615C377.087 111.735 377.057 111.925 377.057 112.105V115.735H375.087V111.455H375.097Z" fill="#212C4A"/>
<path d="M158.527 126.885H157.687V125.445H158.527V125.205C158.527 124.445 158.757 123.625 159.327 123.095C159.827 122.635 160.487 122.465 161.067 122.465C161.507 122.465 161.907 122.525 162.137 122.615L161.927 124.105C161.757 124.055 161.597 124.015 161.377 124.015C160.737 124.015 160.487 124.465 160.487 125.125V125.445H161.747V126.885H160.497V131.735H158.527V126.885Z" fill="#212C4A"/>
<path d="M165.577 125.305C167.467 125.305 168.797 126.565 168.797 128.585C168.797 130.935 166.997 131.875 165.427 131.875C163.627 131.875 162.227 130.665 162.227 128.595C162.227 126.525 163.737 125.305 165.587 125.305H165.577ZM165.507 130.475C166.357 130.475 166.767 129.635 166.767 128.605C166.767 127.715 166.457 126.685 165.507 126.685C164.557 126.685 164.237 127.715 164.237 128.585C164.237 129.585 164.647 130.465 165.507 130.465V130.475Z" fill="#212C4A"/>
<path d="M169.967 127.515C169.967 126.585 169.957 125.985 169.917 125.445H171.607L171.687 126.605H171.737C172.057 125.675 172.817 125.305 173.437 125.305C173.617 125.305 173.707 125.305 173.857 125.335V127.175C173.707 127.145 173.537 127.125 173.317 127.125C172.607 127.125 172.107 127.515 171.977 128.115C171.947 128.245 171.937 128.405 171.937 128.555V131.745H169.967V127.525V127.515Z" fill="#212C4A"/>
<path d="M178.047 123.185C178.767 123.065 179.717 123.005 180.687 123.005C182.347 123.005 183.417 123.315 184.247 123.935C185.147 124.605 185.717 125.675 185.717 127.205C185.717 128.865 185.117 130.005 184.277 130.715C183.367 131.475 181.957 131.835 180.287 131.835C179.257 131.835 178.537 131.775 178.047 131.705V123.195V123.185ZM180.697 130.295C182.467 130.305 183.627 129.335 183.627 127.255C183.627 125.455 182.587 124.505 180.887 124.505C180.467 124.505 180.177 124.545 179.997 124.585V130.255C180.177 130.285 180.447 130.295 180.687 130.295H180.697Z" fill="#212C4A"/>
<path d="M189.757 125.305C191.787 125.305 192.577 126.885 192.577 128.445C192.577 128.795 192.527 129.075 192.497 129.215H188.447C188.507 130.025 189.307 130.415 190.217 130.415C190.887 130.415 191.417 130.325 191.957 130.145L192.217 131.485C191.577 131.745 190.777 131.885 189.937 131.885C187.797 131.885 186.577 130.635 186.577 128.665C186.577 127.075 187.567 125.305 189.757 125.305ZM190.747 127.875C190.747 127.415 190.527 126.605 189.637 126.605C188.817 126.605 188.477 127.365 188.427 127.875H190.747Z" fill="#212C4A"/>
<path d="M192.987 125.445H195.107L195.957 128.365C196.107 128.905 196.217 129.395 196.317 129.895H196.357C196.457 129.385 196.567 128.905 196.707 128.365L197.517 125.445H199.577L197.237 131.735H195.277L192.987 125.445Z" fill="#212C4A"/>
<path d="M203.087 125.305C205.117 125.305 205.907 126.885 205.907 128.445C205.907 128.795 205.857 129.075 205.827 129.215H201.777C201.837 130.025 202.637 130.415 203.547 130.415C204.217 130.415 204.747 130.325 205.287 130.145L205.547 131.485C204.907 131.745 204.107 131.885 203.267 131.885C201.127 131.885 199.907 130.635 199.907 128.665C199.907 127.075 200.897 125.305 203.087 125.305ZM204.077 127.875C204.077 127.415 203.857 126.605 202.967 126.605C202.147 126.605 201.807 127.365 201.757 127.875H204.077Z" fill="#212C4A"/>
<path d="M207.047 122.605H209.017V131.735H207.047V122.605Z" fill="#212C4A"/>
<path d="M213.587 125.305C215.477 125.305 216.807 126.565 216.807 128.585C216.807 130.935 215.007 131.875 213.437 131.875C211.637 131.875 210.237 130.665 210.237 128.595C210.237 126.525 211.737 125.305 213.597 125.305H213.587ZM213.517 130.475C214.367 130.475 214.777 129.635 214.777 128.605C214.777 127.715 214.467 126.685 213.517 126.685C212.567 126.685 212.247 127.715 212.247 128.585C212.247 129.585 212.657 130.465 213.517 130.465V130.475Z" fill="#212C4A"/>
<path d="M219.947 134.285H217.977V127.555C217.977 126.735 217.947 126.035 217.927 125.445H219.637L219.727 126.325H219.757C220.237 125.655 220.937 125.305 221.857 125.305C223.237 125.305 224.477 126.505 224.477 128.505C224.477 130.795 223.007 131.875 221.607 131.875C220.847 131.875 220.247 131.575 219.977 131.155H219.947V134.285ZM221.127 130.385C221.977 130.385 222.477 129.665 222.477 128.595C222.477 127.595 222.027 126.835 221.157 126.835C220.607 126.835 220.117 127.255 219.987 127.825C219.957 127.925 219.947 128.055 219.947 128.175V129.035C219.947 129.185 219.957 129.335 219.987 129.445C220.117 129.975 220.567 130.385 221.127 130.385Z" fill="#212C4A"/>
<path d="M225.667 127.455C225.667 126.665 225.637 126.015 225.617 125.445H227.287L227.367 126.295H227.407C227.667 125.895 228.227 125.305 229.307 125.305C230.127 125.305 230.757 125.715 231.027 126.375H231.057C231.287 126.055 231.567 125.795 231.867 125.615C232.217 125.405 232.597 125.305 233.067 125.305C234.267 125.305 235.187 126.155 235.187 128.035V131.745H233.287V128.335C233.287 127.425 232.987 126.895 232.357 126.895C231.907 126.895 231.587 127.195 231.457 127.565C231.407 127.715 231.397 127.915 231.397 128.065V131.745H229.477V128.225C229.477 127.435 229.197 126.895 228.577 126.895C228.077 126.895 227.767 127.285 227.667 127.585C227.607 127.745 227.587 127.915 227.587 128.075V131.745H225.667V127.465V127.455Z" fill="#212C4A"/>
<path d="M239.557 125.305C241.587 125.305 242.377 126.885 242.377 128.445C242.377 128.795 242.327 129.075 242.297 129.215H238.247C238.307 130.025 239.107 130.415 240.017 130.415C240.687 130.415 241.217 130.325 241.757 130.145L242.017 131.485C241.377 131.745 240.577 131.885 239.737 131.885C237.597 131.885 236.377 130.635 236.377 128.665C236.377 127.075 237.367 125.305 239.557 125.305ZM240.547 127.875C240.547 127.415 240.327 126.605 239.437 126.605C238.617 126.605 238.277 127.365 238.227 127.875H240.547Z" fill="#212C4A"/>
<path d="M243.507 127.455C243.507 126.665 243.477 126.015 243.457 125.445H245.167L245.257 126.325H245.297C245.557 125.915 246.187 125.305 247.237 125.305C248.527 125.305 249.487 126.155 249.487 128.005V131.735H247.527V128.245C247.527 127.435 247.227 126.885 246.537 126.885C245.997 126.885 245.677 127.255 245.547 127.615C245.497 127.735 245.467 127.925 245.467 128.105V131.735H243.497V127.455H243.507Z" fill="#212C4A"/>
<path d="M251.247 129.455V126.885H250.397V125.445H251.247V124.095L253.167 123.645V125.445H254.567V126.885H253.167V129.165C253.167 129.925 253.347 130.275 253.927 130.275C254.187 130.275 254.377 130.245 254.517 130.215V131.705C254.267 131.795 253.807 131.885 253.267 131.885C252.627 131.885 252.097 131.665 251.777 131.335C251.417 130.965 251.247 130.375 251.247 129.475V129.455Z" fill="#212C4A"/>
<path d="M260.067 126.925V126.885C259.697 126.485 259.407 125.845 259.407 125.225C259.407 124.115 260.267 122.925 262.007 122.925C263.347 122.925 264.357 123.715 264.357 124.955C264.357 125.845 263.847 126.585 262.647 127.185V127.235C263.137 127.785 263.667 128.415 264.087 128.855C264.437 128.315 264.687 127.515 264.817 126.745H266.567C266.337 128.055 265.897 129.185 265.127 130.035C265.617 130.585 266.117 131.165 266.657 131.735H264.377C264.187 131.545 264.017 131.345 263.807 131.115C263.237 131.565 262.457 131.875 261.427 131.875C259.317 131.875 258.407 130.635 258.407 129.435C258.407 128.295 259.047 127.455 260.057 126.925H260.067ZM261.717 130.465C262.227 130.465 262.657 130.255 262.897 130.025C262.367 129.495 261.667 128.685 260.957 127.905C260.597 128.165 260.277 128.535 260.277 129.105C260.277 129.835 260.827 130.465 261.717 130.465ZM262.697 125.005C262.697 124.595 262.467 124.155 261.967 124.155C261.467 124.155 261.167 124.575 261.167 125.015C261.167 125.455 261.357 125.855 261.767 126.275C262.387 125.835 262.697 125.505 262.697 125.005Z" fill="#212C4A"/>
<path d="M270.687 123.185C271.407 123.065 272.357 123.005 273.327 123.005C274.987 123.005 276.057 123.315 276.887 123.935C277.787 124.605 278.357 125.675 278.357 127.205C278.357 128.865 277.757 130.005 276.917 130.715C276.007 131.475 274.597 131.835 272.927 131.835C271.897 131.835 271.177 131.775 270.687 131.705V123.195V123.185ZM273.337 130.295C275.107 130.305 276.267 129.335 276.267 127.255C276.267 125.455 275.227 124.505 273.527 124.505C273.107 124.505 272.817 124.545 272.637 124.585V130.255C272.817 130.285 273.087 130.295 273.337 130.295Z" fill="#212C4A"/>
<path d="M282.407 125.305C284.437 125.305 285.227 126.885 285.227 128.445C285.227 128.795 285.177 129.075 285.147 129.215H281.097C281.157 130.025 281.957 130.415 282.867 130.415C283.537 130.415 284.067 130.325 284.607 130.145L284.867 131.485C284.227 131.745 283.427 131.885 282.587 131.885C280.447 131.885 279.227 130.635 279.227 128.665C279.227 127.075 280.217 125.305 282.407 125.305ZM283.397 127.875C283.397 127.415 283.177 126.605 282.287 126.605C281.467 126.605 281.127 127.365 281.077 127.875H283.397Z" fill="#212C4A"/>
<path d="M286.367 127.455C286.367 126.665 286.337 126.015 286.317 125.445H287.987L288.067 126.295H288.107C288.367 125.895 288.927 125.305 290.007 125.305C290.827 125.305 291.457 125.715 291.727 126.375H291.757C291.987 126.055 292.267 125.795 292.567 125.615C292.917 125.405 293.297 125.305 293.767 125.305C294.967 125.305 295.887 126.155 295.887 128.035V131.745H293.987V128.335C293.987 127.425 293.687 126.895 293.057 126.895C292.607 126.895 292.287 127.195 292.157 127.565C292.107 127.715 292.097 127.915 292.097 128.065V131.745H290.177V128.225C290.177 127.435 289.897 126.895 289.277 126.895C288.777 126.895 288.467 127.285 288.367 127.585C288.307 127.745 288.287 127.915 288.287 128.075V131.745H286.367V127.465V127.455Z" fill="#212C4A"/>
<path d="M300.427 125.305C302.317 125.305 303.637 126.565 303.637 128.585C303.637 130.935 301.837 131.875 300.267 131.875C298.467 131.875 297.067 130.665 297.067 128.595C297.067 126.525 298.567 125.305 300.427 125.305ZM300.367 130.475C301.217 130.475 301.627 129.635 301.627 128.605C301.627 127.715 301.317 126.685 300.367 126.685C299.417 126.685 299.097 127.715 299.097 128.585C299.097 129.585 299.507 130.465 300.367 130.465V130.475Z" fill="#212C4A"/>
<path d="M308.107 125.305C308.637 125.305 309.197 125.395 309.607 125.545L309.297 127.015C309.067 126.895 308.717 126.805 308.207 126.805C307.177 126.805 306.507 127.535 306.517 128.565C306.517 129.725 307.287 130.335 308.227 130.335C308.707 130.335 309.047 130.245 309.357 130.125L309.587 131.565C309.227 131.715 308.587 131.865 307.837 131.865C305.807 131.865 304.507 130.615 304.507 128.635C304.507 126.795 305.767 125.295 308.097 125.295L308.107 125.305Z" fill="#212C4A"/>
<path d="M310.667 127.515C310.667 126.585 310.657 125.985 310.617 125.445H312.297L312.377 126.605H312.427C312.747 125.675 313.507 125.305 314.127 125.305C314.307 125.305 314.397 125.305 314.547 125.335V127.175C314.397 127.145 314.227 127.125 314.007 127.125C313.297 127.125 312.797 127.515 312.667 128.115C312.637 128.245 312.627 128.405 312.627 128.555V131.745H310.657V127.525L310.667 127.515Z" fill="#212C4A"/>
<path d="M318.697 127.545V127.455C318.697 127.125 318.517 126.645 317.537 126.645C316.897 126.645 316.237 126.875 315.817 127.125L315.457 125.875C315.897 125.615 316.757 125.305 317.897 125.305C319.997 125.305 320.647 126.545 320.647 128.015V130.205C320.647 130.805 320.687 131.375 320.747 131.735H318.987L318.867 131.115H318.827C318.417 131.605 317.777 131.875 317.027 131.875C315.757 131.875 314.997 130.965 314.997 129.955C314.997 128.305 316.467 127.535 318.687 127.535L318.697 127.545ZM317.727 130.495C318.207 130.495 318.607 130.175 318.727 129.775C318.767 129.685 318.767 129.555 318.767 129.455V128.745C317.727 128.755 316.937 129.005 316.937 129.745C316.937 130.245 317.267 130.495 317.717 130.495H317.727Z" fill="#212C4A"/>
<path d="M325.437 125.305C325.967 125.305 326.527 125.395 326.937 125.545L326.627 127.015C326.397 126.895 326.047 126.805 325.537 126.805C324.507 126.805 323.837 127.535 323.847 128.565C323.847 129.725 324.617 130.335 325.557 130.335C326.037 130.335 326.377 130.245 326.687 130.125L326.917 131.565C326.557 131.715 325.917 131.865 325.167 131.865C323.137 131.865 321.837 130.615 321.837 128.635C321.837 126.795 323.097 125.295 325.427 125.295L325.437 125.305Z" fill="#212C4A"/>
<path d="M329.767 131.795C329.847 131.705 329.887 131.605 329.887 131.525C329.887 131.445 329.877 131.345 329.797 131.205L327.497 125.445H329.667L330.607 128.535C330.707 128.905 330.827 129.375 330.917 129.705H330.967C331.047 129.375 331.147 128.895 331.237 128.535L332.007 125.445H334.107L332.637 129.585C331.737 132.085 331.137 133.085 330.427 133.715C329.757 134.305 329.027 134.515 328.537 134.575L328.127 132.925C328.377 132.865 328.667 132.755 328.977 132.575C329.277 132.425 329.607 132.115 329.777 131.795H329.767Z" fill="#212C4A"/>
<path d="M338.167 129.715C338.677 129.985 339.507 130.255 340.337 130.255C341.237 130.255 341.717 129.885 341.717 129.315C341.717 128.785 341.307 128.465 340.277 128.105C338.827 127.575 337.867 126.805 337.867 125.535C337.867 124.055 339.117 122.935 341.147 122.935C342.147 122.935 342.857 123.125 343.357 123.355L342.937 124.935C342.587 124.785 341.977 124.525 341.127 124.525C340.277 124.525 339.867 124.925 339.867 125.365C339.867 125.905 340.357 126.165 341.477 126.585C343.007 127.155 343.717 127.945 343.717 129.175C343.717 130.625 342.627 131.875 340.227 131.875C339.237 131.875 338.257 131.605 337.767 131.335L338.167 129.715Z" fill="#212C4A"/>
<path d="M344.947 125.445H346.917V128.815C346.917 129.725 347.187 130.295 347.897 130.295C348.427 130.295 348.747 129.945 348.877 129.615C348.917 129.495 348.937 129.355 348.937 129.195V125.455H350.907V129.735C350.907 130.545 350.937 131.215 350.957 131.745H349.247L349.157 130.855H349.127C348.847 131.295 348.267 131.885 347.147 131.885C345.897 131.885 344.947 131.135 344.947 129.145V125.455V125.445Z" fill="#212C4A"/>
<path d="M354.427 134.285H352.457V127.555C352.457 126.735 352.427 126.035 352.407 125.445H354.117L354.207 126.325H354.237C354.717 125.655 355.417 125.305 356.337 125.305C357.717 125.305 358.957 126.505 358.957 128.505C358.957 130.795 357.487 131.875 356.087 131.875C355.327 131.875 354.727 131.575 354.457 131.155H354.427V134.285ZM355.607 130.385C356.457 130.385 356.957 129.665 356.957 128.595C356.957 127.595 356.507 126.835 355.637 126.835C355.087 126.835 354.597 127.255 354.467 127.825C354.437 127.925 354.427 128.055 354.427 128.175V129.035C354.427 129.185 354.437 129.335 354.467 129.445C354.597 129.975 355.047 130.385 355.607 130.385Z" fill="#212C4A"/>
<path d="M362.117 134.285H360.147V127.555C360.147 126.735 360.117 126.035 360.097 125.445H361.807L361.897 126.325H361.927C362.407 125.655 363.107 125.305 364.027 125.305C365.407 125.305 366.647 126.505 366.647 128.505C366.647 130.795 365.177 131.875 363.777 131.875C363.017 131.875 362.417 131.575 362.147 131.155H362.117V134.285ZM363.297 130.385C364.147 130.385 364.647 129.665 364.647 128.595C364.647 127.595 364.197 126.835 363.327 126.835C362.777 126.835 362.287 127.255 362.157 127.825C362.127 127.925 362.117 128.055 362.117 128.175V129.035C362.117 129.185 362.127 129.335 362.157 129.445C362.287 129.975 362.737 130.385 363.297 130.385Z" fill="#212C4A"/>
<path d="M370.887 125.305C372.777 125.305 374.107 126.565 374.107 128.585C374.107 130.935 372.307 131.875 370.737 131.875C368.937 131.875 367.537 130.665 367.537 128.595C367.537 126.525 369.037 125.305 370.897 125.305H370.887ZM370.817 130.475C371.667 130.475 372.077 129.635 372.077 128.605C372.077 127.715 371.767 126.685 370.817 126.685C369.867 126.685 369.547 127.715 369.547 128.585C369.547 129.585 369.957 130.465 370.817 130.465V130.475Z" fill="#212C4A"/>
<path d="M375.277 127.515C375.277 126.585 375.267 125.985 375.227 125.445H376.907L376.987 126.605H377.037C377.357 125.675 378.117 125.305 378.737 125.305C378.917 125.305 379.007 125.305 379.157 125.335V127.175C379.007 127.145 378.837 127.125 378.617 127.125C377.907 127.125 377.407 127.515 377.277 128.115C377.247 128.245 377.237 128.405 377.237 128.555V131.745H375.267V127.525L375.277 127.515Z" fill="#212C4A"/>
<path d="M380.717 129.455V126.885H379.867V125.445H380.717V124.095L382.637 123.645V125.445H384.037V126.885H382.637V129.165C382.637 129.925 382.817 130.275 383.397 130.275C383.657 130.275 383.847 130.245 383.987 130.215V131.705C383.737 131.795 383.277 131.885 382.737 131.885C382.097 131.885 381.567 131.665 381.247 131.335C380.887 130.965 380.717 130.375 380.717 129.475V129.455Z" fill="#212C4A"/>
<path d="M201.102 142.945H203.132L204.722 145.765C205.192 146.575 205.632 147.535 205.992 148.405H206.022C205.912 147.385 205.872 146.345 205.872 145.185V142.945H207.472V150.645H205.652L203.992 147.685C203.532 146.855 203.022 145.865 202.652 144.965H202.602C202.662 145.985 202.682 147.075 202.682 148.335V150.645H201.082V142.945H201.102ZM208.632 146.885C208.632 144.325 210.502 142.865 213.032 142.865C214.022 142.865 214.792 143.055 215.172 143.235L214.802 144.645C214.382 144.465 213.852 144.315 213.022 144.315C211.562 144.315 210.452 145.125 210.452 146.805C210.452 148.395 211.472 149.335 212.882 149.335C213.272 149.335 213.592 149.285 213.732 149.225V147.615H212.552V146.255H215.422V150.315C214.882 150.505 213.872 150.745 212.852 150.745C211.442 150.745 210.432 150.395 209.722 149.715C209.012 149.045 208.622 148.035 208.632 146.905V146.885ZM216.432 146.855C216.432 144.465 217.952 142.825 220.212 142.825C222.472 142.825 223.832 144.535 223.832 146.795C223.832 149.375 222.132 150.785 220.062 150.785C217.832 150.785 216.432 149.175 216.432 146.865V146.855ZM221.992 146.805C221.992 145.505 221.422 144.195 220.142 144.195C218.862 144.195 218.272 145.375 218.272 146.815C218.272 148.255 218.942 149.385 220.132 149.385C221.322 149.385 221.992 148.195 221.992 146.805ZM262.122 147.535C262.182 148.605 262.602 148.835 263.342 148.835C263.792 148.835 264.382 149.045 264.382 149.725C264.382 150.145 264.212 150.635 263.342 150.635C262.302 150.635 261.562 150.365 261.192 149.495C260.792 149.785 260.202 149.945 259.762 149.945C258.642 149.945 257.912 149.215 257.912 148.275C257.912 147.465 258.312 146.775 259.062 146.165C259.522 145.785 260.212 145.425 260.772 145.145L260.752 144.315L261.972 144.205L262.112 147.545L262.122 147.535ZM260.852 146.445C259.862 146.775 259.192 147.255 259.192 147.735C259.192 148.065 259.462 148.265 260.002 148.265C260.322 148.265 260.712 148.165 260.932 148.075L260.852 146.455V146.445ZM259.452 142.395C259.452 141.895 259.792 141.575 260.242 141.575C260.712 141.575 261.032 141.895 261.032 142.395C261.032 142.895 260.712 143.205 260.242 143.205C259.772 143.205 259.452 142.905 259.452 142.395ZM261.372 142.395C261.372 141.895 261.692 141.575 262.152 141.575C262.612 141.575 262.932 141.895 262.932 142.395C262.932 142.895 262.612 143.205 262.152 143.205C261.692 143.205 261.372 142.905 261.372 142.395ZM262.352 149.715C262.352 149.305 262.662 148.845 263.332 148.845C264.482 148.845 264.692 148.255 264.802 147.405L265.892 147.315C265.882 147.445 265.872 147.545 265.872 147.695C265.872 148.385 266.112 148.825 267.062 148.845C267.522 148.845 268.112 149.055 268.112 149.735C268.112 150.155 267.932 150.645 267.062 150.645C265.932 150.645 265.492 150.165 265.272 149.615C264.902 150.245 264.292 150.645 263.322 150.645C262.572 150.645 262.362 150.135 262.362 149.705L262.352 149.715ZM265.102 153.005C265.102 153.495 264.782 153.805 264.322 153.805C263.862 153.805 263.522 153.515 263.522 153.005C263.522 152.495 263.862 152.185 264.322 152.185C264.782 152.185 265.102 152.495 265.102 153.005ZM266.992 153.005C266.992 153.495 266.672 153.805 266.212 153.805C265.752 153.805 265.432 153.515 265.432 153.005C265.432 152.495 265.752 152.185 266.212 152.185C266.672 152.185 266.992 152.495 266.992 153.005ZM266.002 149.745C266.002 149.335 266.182 148.845 267.052 148.845H267.082C267.582 148.845 267.752 148.665 268.012 148.055C268.632 146.625 269.142 146.035 270.152 146.035C271.492 146.035 272.202 147.545 272.202 148.785C272.202 149.775 271.652 150.645 270.602 150.645C269.862 150.645 269.222 150.355 268.532 149.925C268.232 150.315 267.952 150.645 267.102 150.645H267.052C266.602 150.645 266.002 150.435 266.002 149.745ZM270.582 148.915C270.852 148.915 271.012 148.845 271.012 148.595C271.012 148.115 270.592 147.505 270.062 147.505C269.712 147.505 269.412 147.685 269.172 148.385C269.542 148.695 270.202 148.915 270.582 148.915ZM278.252 148.845C278.712 148.845 279.302 149.055 279.302 149.735C279.302 150.155 279.132 150.645 278.262 150.645H277.332C276.882 152.405 275.462 153.655 273.912 153.655C273.322 153.655 272.392 153.525 271.802 152.905L272.062 151.755C272.432 151.945 272.862 152.105 273.682 152.105C274.732 152.105 275.582 151.575 275.972 150.655C273.782 150.655 273.182 149.465 273.182 148.335C273.182 146.905 274.272 146.025 275.262 146.025C275.992 146.025 277.262 146.555 277.452 148.845H278.242H278.252ZM276.142 148.845C275.992 147.875 275.512 147.415 275.032 147.415C274.622 147.415 274.362 147.715 274.362 148.035C274.362 148.405 274.592 148.845 276.012 148.845H276.152H276.142ZM277.292 149.715C277.292 149.365 277.512 148.845 278.262 148.845H278.632C279.992 148.845 280.582 148.655 280.582 148.305C280.582 148.145 280.512 148.005 280.242 147.655C279.662 146.935 279.032 146.435 278.512 146.035C278.512 145.845 278.642 144.535 278.702 144.345C278.722 144.265 278.772 144.175 279.152 143.965C280.202 143.405 282.172 142.675 283.632 142.295L283.262 143.975C282.542 144.145 280.522 144.765 279.672 145.195C280.712 146.085 281.382 146.905 282.382 148.185C282.812 148.765 283.192 148.815 283.602 148.835C284.052 148.835 284.642 149.045 284.642 149.725C284.642 150.145 284.472 150.635 283.602 150.635C282.572 150.615 282.182 150.345 281.372 149.325C281.052 150.305 280.232 150.635 278.592 150.635H278.252C277.482 150.635 277.282 150.095 277.282 149.695L277.292 149.715ZM282.642 149.745C282.642 149.285 282.932 148.845 283.612 148.845H283.842C285.172 148.845 286.412 148.695 287.412 148.375C287.962 148.215 288.222 148.115 288.532 148.005C287.742 147.665 286.622 147.225 285.792 147.225C285.312 147.225 284.692 147.295 284.172 147.515L284.472 145.965C284.872 145.755 285.482 145.705 285.942 145.705C287.092 145.705 288.022 146.125 289.052 146.575C289.962 146.955 290.252 147.035 290.672 147.035H291.182L290.942 148.625H290.852C290.272 148.625 289.592 148.855 289.002 149.215C287.112 150.345 285.622 150.655 283.852 150.655H283.622C283.032 150.655 282.652 150.315 282.652 149.755L282.642 149.745ZM296.222 151.605C297.042 151.605 297.922 150.975 297.922 150.235C297.922 149.745 297.462 148.655 296.772 147.545L298.082 147.065C298.472 147.735 298.882 147.945 299.412 147.945C300.122 147.945 300.602 147.575 300.692 146.895L301.832 146.795C301.772 147.135 301.742 147.455 301.742 147.675C301.742 148.575 302.222 148.825 302.932 148.845C303.382 148.845 303.972 149.055 303.972 149.735C303.972 150.155 303.802 150.645 302.932 150.645C301.682 150.645 300.932 150.025 300.752 148.975C300.482 149.355 299.872 149.535 299.342 149.535C299.262 149.535 299.112 149.525 299.052 149.525C299.112 149.765 299.132 150.095 299.132 150.305C299.132 151.805 298.032 153.335 296.342 153.335C295.722 153.335 294.972 153.155 294.532 152.595L294.752 151.285C295.152 151.515 295.652 151.615 296.212 151.615L296.222 151.605ZM300.702 153.005C300.702 153.495 300.382 153.805 299.922 153.805C299.462 153.805 299.122 153.515 299.122 153.005C299.122 152.495 299.462 152.185 299.922 152.185C300.382 152.185 300.702 152.495 300.702 153.005ZM302.602 153.005C302.602 153.495 302.282 153.805 301.822 153.805C301.362 153.805 301.052 153.515 301.052 153.005C301.052 152.495 301.362 152.185 301.822 152.185C302.282 152.185 302.602 152.495 302.602 153.005ZM301.962 149.695C301.962 149.295 302.202 148.835 302.932 148.835H303.022C303.312 148.835 303.822 148.815 304.092 148.785C303.872 148.575 303.542 148.145 303.542 147.525C303.542 146.215 304.662 145.205 306.052 145.205C306.692 145.205 307.172 145.355 307.502 145.585L307.652 146.995C307.282 146.805 306.672 146.695 306.162 146.695C305.282 146.695 304.742 147.145 304.742 147.525C304.742 147.785 304.972 148.055 305.392 148.305C305.642 148.455 306.112 148.555 306.352 148.555C306.782 148.555 307.662 148.395 308.332 148.165L308.042 149.835C306.992 150.305 305.022 150.635 303.022 150.635H302.912C302.132 150.635 301.942 150.085 301.942 149.685L301.962 149.695ZM304.772 143.135C304.772 142.605 305.112 142.265 305.582 142.265C306.082 142.265 306.402 142.605 306.402 143.135C306.402 143.665 306.082 143.985 305.582 143.985C305.112 143.985 304.772 143.655 304.772 143.135ZM316.122 147.535C316.182 148.605 316.602 148.835 317.342 148.835C317.792 148.835 318.382 149.045 318.382 149.725C318.382 150.145 318.212 150.635 317.342 150.635C316.302 150.635 315.562 150.365 315.192 149.495C314.792 149.785 314.202 149.945 313.762 149.945C312.642 149.945 311.912 149.215 311.912 148.275C311.912 147.465 312.312 146.775 313.062 146.165C313.522 145.785 314.212 145.425 314.772 145.145L314.752 144.315L315.972 144.205L316.112 147.545L316.122 147.535ZM314.852 146.445C313.862 146.775 313.192 147.255 313.192 147.735C313.192 148.065 313.462 148.265 314.002 148.265C314.322 148.265 314.712 148.165 314.932 148.075L314.852 146.455V146.445ZM313.442 142.395C313.442 141.895 313.782 141.575 314.232 141.575C314.702 141.575 315.022 141.895 315.022 142.395C315.022 142.895 314.702 143.205 314.232 143.205C313.762 143.205 313.442 142.905 313.442 142.395ZM315.362 142.395C315.362 141.895 315.682 141.575 316.142 141.575C316.602 141.575 316.922 141.895 316.922 142.395C316.922 142.895 316.602 143.205 316.142 143.205C315.682 143.205 315.362 142.905 315.362 142.395ZM317.392 148.845C317.812 148.835 318.042 148.695 318.302 148.055C318.922 146.645 319.432 146.165 320.442 146.165C321.452 146.165 322.122 147.025 322.392 147.985C322.762 148.805 323.092 148.845 323.382 148.845C323.832 148.845 324.422 149.055 324.422 149.735C324.422 150.155 324.252 150.645 323.382 150.645C322.962 150.645 322.482 150.475 322.202 150.085C321.942 150.505 321.502 150.785 320.912 150.785C320.182 150.785 319.472 150.495 318.782 150.065C318.472 150.415 318.132 150.645 317.362 150.645H317.332C316.872 150.645 316.282 150.435 316.282 149.745C316.282 149.335 316.452 148.845 317.322 148.845H317.382H317.392ZM321.312 148.725C321.312 148.245 320.902 147.635 320.362 147.635C320.012 147.635 319.692 147.815 319.432 148.515C319.812 148.825 320.492 149.045 320.872 149.045C321.132 149.045 321.302 148.975 321.302 148.725H321.312ZM325.572 145.445C325.602 146.425 325.592 147.035 325.552 147.315C326.362 146.335 327.502 145.665 328.602 145.665C330.152 145.665 331.022 146.895 331.022 148.015C331.022 148.235 331.002 148.475 330.922 148.715C331.192 148.815 331.622 148.825 331.792 148.825C332.242 148.825 332.832 149.035 332.832 149.715C332.832 150.135 332.662 150.625 331.792 150.625H331.602C330.872 150.625 330.082 150.385 329.702 150.055C329.642 150.075 329.592 150.115 329.522 150.135C328.792 150.445 327.852 150.625 325.432 150.625H323.402C322.632 150.625 322.462 150.065 322.462 149.685C322.462 149.365 322.632 148.825 323.402 148.825H324.022C324.112 148.685 324.182 148.525 324.232 148.355C324.322 148.035 324.292 147.645 324.262 147.185L324.042 142.325L325.462 142.225L325.592 145.415L325.572 145.445ZM326.032 148.855C327.542 148.855 328.772 148.755 329.152 148.615C329.552 148.475 329.822 148.325 329.822 148.035C329.822 147.705 329.392 147.145 328.372 147.145C327.552 147.145 326.512 147.695 325.602 148.855H326.022H326.032ZM327.142 143.605C327.142 143.075 327.482 142.735 327.952 142.735C328.452 142.735 328.772 143.075 328.772 143.605C328.772 144.135 328.452 144.455 327.952 144.455C327.482 144.455 327.142 144.135 327.142 143.605ZM330.792 149.715C330.792 149.305 331.102 148.845 331.772 148.845C332.922 148.845 333.132 148.255 333.242 147.405L334.332 147.315C334.322 147.445 334.312 147.545 334.312 147.695C334.312 148.385 334.552 148.825 335.502 148.845C335.962 148.845 336.552 149.055 336.552 149.735C336.552 150.155 336.372 150.645 335.502 150.645C334.372 150.645 333.932 150.165 333.712 149.615C333.342 150.245 332.732 150.645 331.762 150.645C331.012 150.645 330.802 150.135 330.802 149.705L330.792 149.715ZM332.942 144.735C332.942 144.205 333.282 143.865 333.752 143.865C334.252 143.865 334.572 144.205 334.572 144.735C334.572 145.265 334.252 145.585 333.752 145.585C333.282 145.585 332.942 145.265 332.942 144.735ZM334.442 149.745C334.442 149.335 334.622 148.845 335.492 148.845H335.522C336.022 148.845 336.192 148.665 336.452 148.055C337.072 146.625 337.582 146.035 338.592 146.035C339.932 146.035 340.642 147.545 340.642 148.785C340.642 149.775 340.092 150.645 339.042 150.645C338.302 150.645 337.662 150.355 336.972 149.925C336.672 150.315 336.392 150.645 335.542 150.645H335.492C335.042 150.645 334.442 150.435 334.442 149.745ZM339.022 148.915C339.292 148.915 339.452 148.845 339.452 148.595C339.452 148.115 339.032 147.505 338.502 147.505C338.152 147.505 337.852 147.685 337.612 148.385C337.982 148.695 338.642 148.915 339.022 148.915Z" fill="#212C4A"/>
<defs>
<linearGradient id="paint0_linear_106_1900" x1="51.7114" y1="44.4593" x2="139.114" y2="67.6957" gradientUnits="userSpaceOnUse">
<stop offset="0.2" stop-color="#24245D"/>
<stop offset="0.8" stop-color="#26E3F4"/>
</linearGradient>
<linearGradient id="paint1_linear_106_1900" x1="64.9999" y1="35" x2="152.402" y2="58.2364" gradientUnits="userSpaceOnUse">
<stop offset="0.2" stop-color="#24245D"/>
<stop offset="0.604066" stop-color="#26E3F4"/>
</linearGradient>
<linearGradient id="paint2_linear_106_1900" x1="78.5944" y1="25.0094" x2="165.997" y2="48.2458" gradientUnits="userSpaceOnUse">
<stop offset="0.2" stop-color="#24245D"/>
<stop offset="0.542703" stop-color="#26E3F4"/>
</linearGradient>
<linearGradient id="paint3_linear_106_1900" x1="34.4562" y1="127.731" x2="121.859" y2="150.968" gradientUnits="userSpaceOnUse">
<stop offset="0.2" stop-color="#24245D"/>
<stop offset="0.8" stop-color="#26E3F4"/>
</linearGradient>
<linearGradient id="paint4_linear_106_1900" x1="47.7687" y1="118.284" x2="135.171" y2="141.521" gradientUnits="userSpaceOnUse">
<stop offset="0.2" stop-color="#24245D"/>
<stop offset="0.602968" stop-color="#26E3F4"/>
</linearGradient>
<linearGradient id="paint5_linear_106_1900" x1="61.355" y1="108.29" x2="148.757" y2="131.526" gradientUnits="userSpaceOnUse">
<stop offset="0.2" stop-color="#24245D"/>
<stop offset="0.529458" stop-color="#26E3F4"/>
</linearGradient>
</defs>
</svg>
